<?xml version="1.0" encoding="utf-8"?>
<!-- Generator: Adobe Illustrator 27.7.0, SVG Export Plug-In . SVG Version: 6.00 Build 0)  -->
<svg version="1.1" id="圖層_1" xmlns="http://www.w3.org/2000/svg" xmlns:xlink="http://www.w3.org/1999/xlink" x="0px" y="0px"
	 viewBox="0 0 510.6 456.2" style="enable-background:new 0 0 510.6 456.2;" xml:space="preserve">
<style type="text/css">
	.st0{clip-path:url(#SVGID_00000053506697712817460590000008123955271711359676_);}
	.st1{clip-path:url(#SVGID_00000034779966275140054040000007635371028878115764_);fill:#FFFFFF;}
	.st2{fill:#FFFFFF;}
</style>
<g>
	<g>
		<g>
			<defs>
				<path id="SVGID_1_" d="M499.7,203.3L399.5,29.9C391.6,16.2,372.2,5,356.4,5H155.9c-15.8,0-35.2,11.2-43.1,24.9L12.6,203.3
					c-7.9,13.7-7.9,36.1,0,49.7l100.2,173.4c7.9,13.7,27.3,24.9,43.1,24.9h200.5c15.8,0,35.2-11.2,43.1-24.9L499.7,253
					C507.6,239.3,507.6,216.9,499.7,203.3 M459.5,236.6l-94.3,163.1c-2.1,3.7-10.5,8.5-14.8,8.5H161.9c-4.2,0-12.7-4.9-14.8-8.5
					L52.8,236.6c-2.1-3.7-2.1-13.4,0-17.1l94.3-163.1c2.1-3.7,10.6-8.5,14.8-8.5h188.5c4.2,0,12.7,4.9,14.8,8.5l94.3,163.1
					C461.6,223.2,461.6,233,459.5,236.6"/>
			</defs>
			<use xlink:href="#SVGID_1_"  style="overflow:visible;fill:#FFFFFF;"/>
			<clipPath id="SVGID_00000044166205962609287640000010032534713586017953_">
				<use xlink:href="#SVGID_1_"  style="overflow:visible;"/>
			</clipPath>
			<g style="clip-path:url(#SVGID_00000044166205962609287640000010032534713586017953_);">
				<g>
					<g>
						<defs>
							<rect id="SVGID_00000133524565282339070880000000341750511480169895_" x="-143.8" y="-72.3" width="800" height="600"/>
						</defs>
						<use xlink:href="#SVGID_00000133524565282339070880000000341750511480169895_"  style="overflow:visible;fill:#FFFFFF;"/>
						<clipPath id="SVGID_00000115486699459850563830000002238691739770631045_">
							<use xlink:href="#SVGID_00000133524565282339070880000000341750511480169895_"  style="overflow:visible;"/>
						</clipPath>
						
							<rect x="1.6" style="clip-path:url(#SVGID_00000115486699459850563830000002238691739770631045_);fill:#FFFFFF;" width="509" height="456.2"/>
					</g>
				</g>
			</g>
		</g>
	</g>
</g>
<path class="st2" d="M381,112.9c-2.9-7.2-12.4-8.6-17.2-2.5L265,239.1l-89.4,116.4c-3.3,4.4-2.5,10.6,1.8,13.9l0,0
	c4.4,3.3,10.6,2.5,13.9-1.8l74.6-97.2c1.7-2.2,4.1-3.5,6.8-3.8c23.7-2.7,54-22.9,78.3-54.5C378.9,176,390.2,135.9,381,112.9z"/>
<path class="st2" d="M338.8,352.5l-93.2-120.4c-1.5-2-2.4-4.4-2.4-6.9l-0.3-41.9c0-2.5-0.9-4.9-2.4-6.9L182.2,101
	c-3.9-5-11-5.9-16-2l-48.8,37.8c-5,3.9-5.9,11-2,16l58.4,75.4c1.5,2,3.7,3.4,6.1,4l42.9,11.4c2.4,0.6,4.6,2.1,6.1,4l92,118.9
	c3.9,5,11,5.9,16,2h0C341.7,364.7,342.6,357.5,338.8,352.5z"/>
</svg>
